M48
; DRILL file KiCad 10.0.3 date 2026-08-29T17:03:51
; FORMAT={-:-/ absolute / metric / decimal}
; #@! TF.CreationDate,2026-08-29T17:03:51-07:00
; #@! TF.GenerationSoftware,Kicad,Pcbnew,10.0.3
; #@! TF.FileFunction,Plated,1,2,PTH
FMAT,2
METRIC
; #@! TA.AperFunction,Plated,PTH,ViaDrill
T1C0.300
; #@! TA.AperFunction,Plated,PTH,ComponentDrill
T2C0.889
; #@! TA.AperFunction,Plated,PTH,ComponentDrill
T3C1.000
; #@! TA.AperFunction,Plated,PTH,ComponentDrill
T4C1.500
%
G90
G05
T1
X137.5Y-76.5
X155.5Y-80.5
X162.0Y-74.5
X172.0Y-80.6
T2
X160.26Y-64.5
X160.26Y-67.04
X160.26Y-69.58
X160.26Y-72.12
X160.26Y-74.66
X160.26Y-77.2
X160.26Y-79.74
X175.5Y-64.5
X175.5Y-67.04
X175.5Y-69.58
X175.5Y-72.12
X175.5Y-74.66
X175.5Y-77.2
X175.5Y-79.74
T3
X133.92Y-79.0
X136.46Y-79.0
X139.0Y-79.0
X141.54Y-79.0
X144.08Y-79.0
X146.62Y-79.0
X149.16Y-79.0
X151.7Y-79.0
X197.7Y-77.0
X205.3Y-77.0
T4
X137.77Y-90.96
X144.12Y-88.42
X157.2Y-90.96
X163.55Y-88.42
X176.61Y-90.96
X182.96Y-88.42
X195.5Y-91.0
X201.85Y-88.46
M30
