%TF.GenerationSoftware,KiCad,Pcbnew,10.0.3*%
%TF.CreationDate,2026-08-29T17:03:54-07:00*%
%TF.ProjectId,blare,626c6172-652e-46b6-9963-61645f706362,rev?*%
%TF.SameCoordinates,Original*%
%TF.FileFunction,Legend,Top*%
%TF.FilePolarity,Positive*%
%FSLAX46Y46*%
G04 Gerber Fmt 4.6, Leading zero omitted, Abs format (unit mm)*
G04 Created by KiCad (PCBNEW 10.0.3) date 2026-08-29 17:03:54*
%MOMM*%
%LPD*%
G01*
G04 APERTURE LIST*
%ADD10C,0.100000*%
%ADD11C,1.000000*%
%ADD12C,0.150000*%
%ADD13C,0.101600*%
%ADD14C,0.120000*%
%ADD15C,0.504000*%
%ADD16C,0.127000*%
G04 APERTURE END LIST*
D10*
X130708646Y-54372419D02*
X130946741Y-55372419D01*
X130946741Y-55372419D02*
X131137217Y-54658133D01*
X131137217Y-54658133D02*
X131327693Y-55372419D01*
X131327693Y-55372419D02*
X131565789Y-54372419D01*
X132375312Y-55372419D02*
X132375312Y-54848609D01*
X132375312Y-54848609D02*
X132327693Y-54753371D01*
X132327693Y-54753371D02*
X132232455Y-54705752D01*
X132232455Y-54705752D02*
X132041979Y-54705752D01*
X132041979Y-54705752D02*
X131946741Y-54753371D01*
X132375312Y-55324800D02*
X132280074Y-55372419D01*
X132280074Y-55372419D02*
X132041979Y-55372419D01*
X132041979Y-55372419D02*
X131946741Y-55324800D01*
X131946741Y-55324800D02*
X131899122Y-55229561D01*
X131899122Y-55229561D02*
X131899122Y-55134323D01*
X131899122Y-55134323D02*
X131946741Y-55039085D01*
X131946741Y-55039085D02*
X132041979Y-54991466D01*
X132041979Y-54991466D02*
X132280074Y-54991466D01*
X132280074Y-54991466D02*
X132375312Y-54943847D01*
X132851503Y-55372419D02*
X132851503Y-54372419D01*
X132946741Y-54991466D02*
X133232455Y-55372419D01*
X133232455Y-54705752D02*
X132851503Y-55086704D01*
X134041979Y-55324800D02*
X133946741Y-55372419D01*
X133946741Y-55372419D02*
X133756265Y-55372419D01*
X133756265Y-55372419D02*
X133661027Y-55324800D01*
X133661027Y-55324800D02*
X133613408Y-55229561D01*
X133613408Y-55229561D02*
X133613408Y-54848609D01*
X133613408Y-54848609D02*
X133661027Y-54753371D01*
X133661027Y-54753371D02*
X133756265Y-54705752D01*
X133756265Y-54705752D02*
X133946741Y-54705752D01*
X133946741Y-54705752D02*
X134041979Y-54753371D01*
X134041979Y-54753371D02*
X134089598Y-54848609D01*
X134089598Y-54848609D02*
X134089598Y-54943847D01*
X134089598Y-54943847D02*
X133613408Y-55039085D01*
X134422932Y-54705752D02*
X134661027Y-55372419D01*
X134899122Y-54705752D02*
X134661027Y-55372419D01*
X134661027Y-55372419D02*
X134565789Y-55610514D01*
X134565789Y-55610514D02*
X134518170Y-55658133D01*
X134518170Y-55658133D02*
X134422932Y-55705752D01*
X135946742Y-54372419D02*
X136184837Y-55372419D01*
X136184837Y-55372419D02*
X136375313Y-54658133D01*
X136375313Y-54658133D02*
X136565789Y-55372419D01*
X136565789Y-55372419D02*
X136803885Y-54372419D01*
X137613408Y-55372419D02*
X137613408Y-54848609D01*
X137613408Y-54848609D02*
X137565789Y-54753371D01*
X137565789Y-54753371D02*
X137470551Y-54705752D01*
X137470551Y-54705752D02*
X137280075Y-54705752D01*
X137280075Y-54705752D02*
X137184837Y-54753371D01*
X137613408Y-55324800D02*
X137518170Y-55372419D01*
X137518170Y-55372419D02*
X137280075Y-55372419D01*
X137280075Y-55372419D02*
X137184837Y-55324800D01*
X137184837Y-55324800D02*
X137137218Y-55229561D01*
X137137218Y-55229561D02*
X137137218Y-55134323D01*
X137137218Y-55134323D02*
X137184837Y-55039085D01*
X137184837Y-55039085D02*
X137280075Y-54991466D01*
X137280075Y-54991466D02*
X137518170Y-54991466D01*
X137518170Y-54991466D02*
X137613408Y-54943847D01*
X138089599Y-55372419D02*
X138089599Y-54372419D01*
X138184837Y-54991466D02*
X138470551Y-55372419D01*
X138470551Y-54705752D02*
X138089599Y-55086704D01*
X139280075Y-55324800D02*
X139184837Y-55372419D01*
X139184837Y-55372419D02*
X138994361Y-55372419D01*
X138994361Y-55372419D02*
X138899123Y-55324800D01*
X138899123Y-55324800D02*
X138851504Y-55229561D01*
X138851504Y-55229561D02*
X138851504Y-54848609D01*
X138851504Y-54848609D02*
X138899123Y-54753371D01*
X138899123Y-54753371D02*
X138994361Y-54705752D01*
X138994361Y-54705752D02*
X139184837Y-54705752D01*
X139184837Y-54705752D02*
X139280075Y-54753371D01*
X139280075Y-54753371D02*
X139327694Y-54848609D01*
X139327694Y-54848609D02*
X139327694Y-54943847D01*
X139327694Y-54943847D02*
X138851504Y-55039085D01*
X139661028Y-54705752D02*
X139899123Y-55372419D01*
X140137218Y-54705752D02*
X139899123Y-55372419D01*
X139899123Y-55372419D02*
X139803885Y-55610514D01*
X139803885Y-55610514D02*
X139756266Y-55658133D01*
X139756266Y-55658133D02*
X139661028Y-55705752D01*
X140565790Y-55324800D02*
X140565790Y-55372419D01*
X140565790Y-55372419D02*
X140518171Y-55467657D01*
X140518171Y-55467657D02*
X140470552Y-55515276D01*
X141756266Y-55372419D02*
X141756266Y-54372419D01*
X142089599Y-54705752D02*
X142470551Y-54705752D01*
X142232456Y-54372419D02*
X142232456Y-55229561D01*
X142232456Y-55229561D02*
X142280075Y-55324800D01*
X142280075Y-55324800D02*
X142375313Y-55372419D01*
X142375313Y-55372419D02*
X142470551Y-55372419D01*
X142851504Y-54372419D02*
X142756266Y-54562895D01*
X143232456Y-55324800D02*
X143327694Y-55372419D01*
X143327694Y-55372419D02*
X143518170Y-55372419D01*
X143518170Y-55372419D02*
X143613408Y-55324800D01*
X143613408Y-55324800D02*
X143661027Y-55229561D01*
X143661027Y-55229561D02*
X143661027Y-55181942D01*
X143661027Y-55181942D02*
X143613408Y-55086704D01*
X143613408Y-55086704D02*
X143518170Y-55039085D01*
X143518170Y-55039085D02*
X143375313Y-55039085D01*
X143375313Y-55039085D02*
X143280075Y-54991466D01*
X143280075Y-54991466D02*
X143232456Y-54896228D01*
X143232456Y-54896228D02*
X143232456Y-54848609D01*
X143232456Y-54848609D02*
X143280075Y-54753371D01*
X143280075Y-54753371D02*
X143375313Y-54705752D01*
X143375313Y-54705752D02*
X143518170Y-54705752D01*
X143518170Y-54705752D02*
X143613408Y-54753371D01*
X144756266Y-54705752D02*
X144994361Y-55372419D01*
X145232456Y-54705752D02*
X144994361Y-55372419D01*
X144994361Y-55372419D02*
X144899123Y-55610514D01*
X144899123Y-55610514D02*
X144851504Y-55658133D01*
X144851504Y-55658133D02*
X144756266Y-55705752D01*
X145756266Y-55372419D02*
X145661028Y-55324800D01*
X145661028Y-55324800D02*
X145613409Y-55277180D01*
X145613409Y-55277180D02*
X145565790Y-55181942D01*
X145565790Y-55181942D02*
X145565790Y-54896228D01*
X145565790Y-54896228D02*
X145613409Y-54800990D01*
X145613409Y-54800990D02*
X145661028Y-54753371D01*
X145661028Y-54753371D02*
X145756266Y-54705752D01*
X145756266Y-54705752D02*
X145899123Y-54705752D01*
X145899123Y-54705752D02*
X145994361Y-54753371D01*
X145994361Y-54753371D02*
X146041980Y-54800990D01*
X146041980Y-54800990D02*
X146089599Y-54896228D01*
X146089599Y-54896228D02*
X146089599Y-55181942D01*
X146089599Y-55181942D02*
X146041980Y-55277180D01*
X146041980Y-55277180D02*
X145994361Y-55324800D01*
X145994361Y-55324800D02*
X145899123Y-55372419D01*
X145899123Y-55372419D02*
X145756266Y-55372419D01*
X146946742Y-54705752D02*
X146946742Y-55372419D01*
X146518171Y-54705752D02*
X146518171Y-55229561D01*
X146518171Y-55229561D02*
X146565790Y-55324800D01*
X146565790Y-55324800D02*
X146661028Y-55372419D01*
X146661028Y-55372419D02*
X146803885Y-55372419D01*
X146803885Y-55372419D02*
X146899123Y-55324800D01*
X146899123Y-55324800D02*
X146946742Y-55277180D01*
X147422933Y-55372419D02*
X147422933Y-54705752D01*
X147422933Y-54896228D02*
X147470552Y-54800990D01*
X147470552Y-54800990D02*
X147518171Y-54753371D01*
X147518171Y-54753371D02*
X147613409Y-54705752D01*
X147613409Y-54705752D02*
X147708647Y-54705752D01*
X148851505Y-55372419D02*
X149041981Y-55372419D01*
X149041981Y-55372419D02*
X149137219Y-55324800D01*
X149137219Y-55324800D02*
X149184838Y-55277180D01*
X149184838Y-55277180D02*
X149280076Y-55134323D01*
X149280076Y-55134323D02*
X149327695Y-54943847D01*
X149327695Y-54943847D02*
X149327695Y-54562895D01*
X149327695Y-54562895D02*
X149280076Y-54467657D01*
X149280076Y-54467657D02*
X149232457Y-54420038D01*
X149232457Y-54420038D02*
X149137219Y-54372419D01*
X149137219Y-54372419D02*
X148946743Y-54372419D01*
X148946743Y-54372419D02*
X148851505Y-54420038D01*
X148851505Y-54420038D02*
X148803886Y-54467657D01*
X148803886Y-54467657D02*
X148756267Y-54562895D01*
X148756267Y-54562895D02*
X148756267Y-54800990D01*
X148756267Y-54800990D02*
X148803886Y-54896228D01*
X148803886Y-54896228D02*
X148851505Y-54943847D01*
X148851505Y-54943847D02*
X148946743Y-54991466D01*
X148946743Y-54991466D02*
X149137219Y-54991466D01*
X149137219Y-54991466D02*
X149232457Y-54943847D01*
X149232457Y-54943847D02*
X149280076Y-54896228D01*
X149280076Y-54896228D02*
X149327695Y-54800990D01*
X149756267Y-55277180D02*
X149803886Y-55324800D01*
X149803886Y-55324800D02*
X149756267Y-55372419D01*
X149756267Y-55372419D02*
X149708648Y-55324800D01*
X149708648Y-55324800D02*
X149756267Y-55277180D01*
X149756267Y-55277180D02*
X149756267Y-55372419D01*
X149756267Y-54753371D02*
X149803886Y-54800990D01*
X149803886Y-54800990D02*
X149756267Y-54848609D01*
X149756267Y-54848609D02*
X149708648Y-54800990D01*
X149708648Y-54800990D02*
X149756267Y-54753371D01*
X149756267Y-54753371D02*
X149756267Y-54848609D01*
X150756266Y-55372419D02*
X150184838Y-55372419D01*
X150470552Y-55372419D02*
X150470552Y-54372419D01*
X150470552Y-54372419D02*
X150375314Y-54515276D01*
X150375314Y-54515276D02*
X150280076Y-54610514D01*
X150280076Y-54610514D02*
X150184838Y-54658133D01*
X151661028Y-54372419D02*
X151184838Y-54372419D01*
X151184838Y-54372419D02*
X151137219Y-54848609D01*
X151137219Y-54848609D02*
X151184838Y-54800990D01*
X151184838Y-54800990D02*
X151280076Y-54753371D01*
X151280076Y-54753371D02*
X151518171Y-54753371D01*
X151518171Y-54753371D02*
X151613409Y-54800990D01*
X151613409Y-54800990D02*
X151661028Y-54848609D01*
X151661028Y-54848609D02*
X151708647Y-54943847D01*
X151708647Y-54943847D02*
X151708647Y-55181942D01*
X151708647Y-55181942D02*
X151661028Y-55277180D01*
X151661028Y-55277180D02*
X151613409Y-55324800D01*
X151613409Y-55324800D02*
X151518171Y-55372419D01*
X151518171Y-55372419D02*
X151280076Y-55372419D01*
X151280076Y-55372419D02*
X151184838Y-55324800D01*
X151184838Y-55324800D02*
X151137219Y-55277180D01*
X152803886Y-54705752D02*
X152994362Y-55372419D01*
X152994362Y-55372419D02*
X153184838Y-54896228D01*
X153184838Y-54896228D02*
X153375314Y-55372419D01*
X153375314Y-55372419D02*
X153565790Y-54705752D01*
X154375314Y-55372419D02*
X154375314Y-54848609D01*
X154375314Y-54848609D02*
X154327695Y-54753371D01*
X154327695Y-54753371D02*
X154232457Y-54705752D01*
X154232457Y-54705752D02*
X154041981Y-54705752D01*
X154041981Y-54705752D02*
X153946743Y-54753371D01*
X154375314Y-55324800D02*
X154280076Y-55372419D01*
X154280076Y-55372419D02*
X154041981Y-55372419D01*
X154041981Y-55372419D02*
X153946743Y-55324800D01*
X153946743Y-55324800D02*
X153899124Y-55229561D01*
X153899124Y-55229561D02*
X153899124Y-55134323D01*
X153899124Y-55134323D02*
X153946743Y-55039085D01*
X153946743Y-55039085D02*
X154041981Y-54991466D01*
X154041981Y-54991466D02*
X154280076Y-54991466D01*
X154280076Y-54991466D02*
X154375314Y-54943847D01*
X154851505Y-55372419D02*
X154851505Y-54372419D01*
X154946743Y-54991466D02*
X155232457Y-55372419D01*
X155232457Y-54705752D02*
X154851505Y-55086704D01*
X156041981Y-55324800D02*
X155946743Y-55372419D01*
X155946743Y-55372419D02*
X155756267Y-55372419D01*
X155756267Y-55372419D02*
X155661029Y-55324800D01*
X155661029Y-55324800D02*
X155613410Y-55229561D01*
X155613410Y-55229561D02*
X155613410Y-54848609D01*
X155613410Y-54848609D02*
X155661029Y-54753371D01*
X155661029Y-54753371D02*
X155756267Y-54705752D01*
X155756267Y-54705752D02*
X155946743Y-54705752D01*
X155946743Y-54705752D02*
X156041981Y-54753371D01*
X156041981Y-54753371D02*
X156089600Y-54848609D01*
X156089600Y-54848609D02*
X156089600Y-54943847D01*
X156089600Y-54943847D02*
X155613410Y-55039085D01*
X156946743Y-54705752D02*
X156946743Y-55372419D01*
X156518172Y-54705752D02*
X156518172Y-55229561D01*
X156518172Y-55229561D02*
X156565791Y-55324800D01*
X156565791Y-55324800D02*
X156661029Y-55372419D01*
X156661029Y-55372419D02*
X156803886Y-55372419D01*
X156803886Y-55372419D02*
X156899124Y-55324800D01*
X156899124Y-55324800D02*
X156946743Y-55277180D01*
X157422934Y-54705752D02*
X157422934Y-55705752D01*
X157422934Y-54753371D02*
X157518172Y-54705752D01*
X157518172Y-54705752D02*
X157708648Y-54705752D01*
X157708648Y-54705752D02*
X157803886Y-54753371D01*
X157803886Y-54753371D02*
X157851505Y-54800990D01*
X157851505Y-54800990D02*
X157899124Y-54896228D01*
X157899124Y-54896228D02*
X157899124Y-55181942D01*
X157899124Y-55181942D02*
X157851505Y-55277180D01*
X157851505Y-55277180D02*
X157803886Y-55324800D01*
X157803886Y-55324800D02*
X157708648Y-55372419D01*
X157708648Y-55372419D02*
X157518172Y-55372419D01*
X157518172Y-55372419D02*
X157422934Y-55324800D01*
X159518172Y-55324800D02*
X159422934Y-55372419D01*
X159422934Y-55372419D02*
X159232458Y-55372419D01*
X159232458Y-55372419D02*
X159137220Y-55324800D01*
X159137220Y-55324800D02*
X159089601Y-55277180D01*
X159089601Y-55277180D02*
X159041982Y-55181942D01*
X159041982Y-55181942D02*
X159041982Y-54896228D01*
X159041982Y-54896228D02*
X159089601Y-54800990D01*
X159089601Y-54800990D02*
X159137220Y-54753371D01*
X159137220Y-54753371D02*
X159232458Y-54705752D01*
X159232458Y-54705752D02*
X159422934Y-54705752D01*
X159422934Y-54705752D02*
X159518172Y-54753371D01*
X160375315Y-55372419D02*
X160375315Y-54848609D01*
X160375315Y-54848609D02*
X160327696Y-54753371D01*
X160327696Y-54753371D02*
X160232458Y-54705752D01*
X160232458Y-54705752D02*
X160041982Y-54705752D01*
X160041982Y-54705752D02*
X159946744Y-54753371D01*
X160375315Y-55324800D02*
X160280077Y-55372419D01*
X160280077Y-55372419D02*
X160041982Y-55372419D01*
X160041982Y-55372419D02*
X159946744Y-55324800D01*
X159946744Y-55324800D02*
X159899125Y-55229561D01*
X159899125Y-55229561D02*
X159899125Y-55134323D01*
X159899125Y-55134323D02*
X159946744Y-55039085D01*
X159946744Y-55039085D02*
X160041982Y-54991466D01*
X160041982Y-54991466D02*
X160280077Y-54991466D01*
X160280077Y-54991466D02*
X160375315Y-54943847D01*
X160994363Y-55372419D02*
X160899125Y-55324800D01*
X160899125Y-55324800D02*
X160851506Y-55229561D01*
X160851506Y-55229561D02*
X160851506Y-54372419D01*
X161518173Y-55372419D02*
X161422935Y-55324800D01*
X161422935Y-55324800D02*
X161375316Y-55229561D01*
X161375316Y-55229561D02*
X161375316Y-54372419D01*
D11*
X187515036Y-56217047D02*
X188229322Y-56455142D01*
X188229322Y-56455142D02*
X188467417Y-56693238D01*
X188467417Y-56693238D02*
X188705513Y-57169428D01*
X188705513Y-57169428D02*
X188705513Y-57883714D01*
X188705513Y-57883714D02*
X188467417Y-58359904D01*
X188467417Y-58359904D02*
X188229322Y-58598000D01*
X188229322Y-58598000D02*
X187753132Y-58836095D01*
X187753132Y-58836095D02*
X185848370Y-58836095D01*
X185848370Y-58836095D02*
X185848370Y-53836095D01*
X185848370Y-53836095D02*
X187515036Y-53836095D01*
X187515036Y-53836095D02*
X187991227Y-54074190D01*
X187991227Y-54074190D02*
X188229322Y-54312285D01*
X188229322Y-54312285D02*
X188467417Y-54788476D01*
X188467417Y-54788476D02*
X188467417Y-55264666D01*
X188467417Y-55264666D02*
X188229322Y-55740857D01*
X188229322Y-55740857D02*
X187991227Y-55978952D01*
X187991227Y-55978952D02*
X187515036Y-56217047D01*
X187515036Y-56217047D02*
X185848370Y-56217047D01*
X193229322Y-58836095D02*
X190848370Y-58836095D01*
X190848370Y-58836095D02*
X190848370Y-53836095D01*
X194657893Y-57407523D02*
X197038846Y-57407523D01*
X194181703Y-58836095D02*
X195848370Y-53836095D01*
X195848370Y-53836095D02*
X197515036Y-58836095D01*
X202038846Y-58836095D02*
X200372179Y-56455142D01*
X199181703Y-58836095D02*
X199181703Y-53836095D01*
X199181703Y-53836095D02*
X201086465Y-53836095D01*
X201086465Y-53836095D02*
X201562655Y-54074190D01*
X201562655Y-54074190D02*
X201800750Y-54312285D01*
X201800750Y-54312285D02*
X202038846Y-54788476D01*
X202038846Y-54788476D02*
X202038846Y-55502761D01*
X202038846Y-55502761D02*
X201800750Y-55978952D01*
X201800750Y-55978952D02*
X201562655Y-56217047D01*
X201562655Y-56217047D02*
X201086465Y-56455142D01*
X201086465Y-56455142D02*
X199181703Y-56455142D01*
X204181703Y-56217047D02*
X205848369Y-56217047D01*
X206562655Y-58836095D02*
X204181703Y-58836095D01*
X204181703Y-58836095D02*
X204181703Y-53836095D01*
X204181703Y-53836095D02*
X206562655Y-53836095D01*
D12*
X140246667Y-86033200D02*
X140389524Y-86080819D01*
X140389524Y-86080819D02*
X140627619Y-86080819D01*
X140627619Y-86080819D02*
X140722857Y-86033200D01*
X140722857Y-86033200D02*
X140770476Y-85985580D01*
X140770476Y-85985580D02*
X140818095Y-85890342D01*
X140818095Y-85890342D02*
X140818095Y-85795104D01*
X140818095Y-85795104D02*
X140770476Y-85699866D01*
X140770476Y-85699866D02*
X140722857Y-85652247D01*
X140722857Y-85652247D02*
X140627619Y-85604628D01*
X140627619Y-85604628D02*
X140437143Y-85557009D01*
X140437143Y-85557009D02*
X140341905Y-85509390D01*
X140341905Y-85509390D02*
X140294286Y-85461771D01*
X140294286Y-85461771D02*
X140246667Y-85366533D01*
X140246667Y-85366533D02*
X140246667Y-85271295D01*
X140246667Y-85271295D02*
X140294286Y-85176057D01*
X140294286Y-85176057D02*
X140341905Y-85128438D01*
X140341905Y-85128438D02*
X140437143Y-85080819D01*
X140437143Y-85080819D02*
X140675238Y-85080819D01*
X140675238Y-85080819D02*
X140818095Y-85128438D01*
X141151429Y-85080819D02*
X141389524Y-86080819D01*
X141389524Y-86080819D02*
X141580000Y-85366533D01*
X141580000Y-85366533D02*
X141770476Y-86080819D01*
X141770476Y-86080819D02*
X142008572Y-85080819D01*
X142818095Y-85414152D02*
X142818095Y-86080819D01*
X142580000Y-85033200D02*
X142341905Y-85747485D01*
X142341905Y-85747485D02*
X142960952Y-85747485D01*
X159676667Y-86033200D02*
X159819524Y-86080819D01*
X159819524Y-86080819D02*
X160057619Y-86080819D01*
X160057619Y-86080819D02*
X160152857Y-86033200D01*
X160152857Y-86033200D02*
X160200476Y-85985580D01*
X160200476Y-85985580D02*
X160248095Y-85890342D01*
X160248095Y-85890342D02*
X160248095Y-85795104D01*
X160248095Y-85795104D02*
X160200476Y-85699866D01*
X160200476Y-85699866D02*
X160152857Y-85652247D01*
X160152857Y-85652247D02*
X160057619Y-85604628D01*
X160057619Y-85604628D02*
X159867143Y-85557009D01*
X159867143Y-85557009D02*
X159771905Y-85509390D01*
X159771905Y-85509390D02*
X159724286Y-85461771D01*
X159724286Y-85461771D02*
X159676667Y-85366533D01*
X159676667Y-85366533D02*
X159676667Y-85271295D01*
X159676667Y-85271295D02*
X159724286Y-85176057D01*
X159724286Y-85176057D02*
X159771905Y-85128438D01*
X159771905Y-85128438D02*
X159867143Y-85080819D01*
X159867143Y-85080819D02*
X160105238Y-85080819D01*
X160105238Y-85080819D02*
X160248095Y-85128438D01*
X160581429Y-85080819D02*
X160819524Y-86080819D01*
X160819524Y-86080819D02*
X161010000Y-85366533D01*
X161010000Y-85366533D02*
X161200476Y-86080819D01*
X161200476Y-86080819D02*
X161438572Y-85080819D01*
X161724286Y-85080819D02*
X162343333Y-85080819D01*
X162343333Y-85080819D02*
X162010000Y-85461771D01*
X162010000Y-85461771D02*
X162152857Y-85461771D01*
X162152857Y-85461771D02*
X162248095Y-85509390D01*
X162248095Y-85509390D02*
X162295714Y-85557009D01*
X162295714Y-85557009D02*
X162343333Y-85652247D01*
X162343333Y-85652247D02*
X162343333Y-85890342D01*
X162343333Y-85890342D02*
X162295714Y-85985580D01*
X162295714Y-85985580D02*
X162248095Y-86033200D01*
X162248095Y-86033200D02*
X162152857Y-86080819D01*
X162152857Y-86080819D02*
X161867143Y-86080819D01*
X161867143Y-86080819D02*
X161771905Y-86033200D01*
X161771905Y-86033200D02*
X161724286Y-85985580D01*
X197976667Y-86073200D02*
X198119524Y-86120819D01*
X198119524Y-86120819D02*
X198357619Y-86120819D01*
X198357619Y-86120819D02*
X198452857Y-86073200D01*
X198452857Y-86073200D02*
X198500476Y-86025580D01*
X198500476Y-86025580D02*
X198548095Y-85930342D01*
X198548095Y-85930342D02*
X198548095Y-85835104D01*
X198548095Y-85835104D02*
X198500476Y-85739866D01*
X198500476Y-85739866D02*
X198452857Y-85692247D01*
X198452857Y-85692247D02*
X198357619Y-85644628D01*
X198357619Y-85644628D02*
X198167143Y-85597009D01*
X198167143Y-85597009D02*
X198071905Y-85549390D01*
X198071905Y-85549390D02*
X198024286Y-85501771D01*
X198024286Y-85501771D02*
X197976667Y-85406533D01*
X197976667Y-85406533D02*
X197976667Y-85311295D01*
X197976667Y-85311295D02*
X198024286Y-85216057D01*
X198024286Y-85216057D02*
X198071905Y-85168438D01*
X198071905Y-85168438D02*
X198167143Y-85120819D01*
X198167143Y-85120819D02*
X198405238Y-85120819D01*
X198405238Y-85120819D02*
X198548095Y-85168438D01*
X198881429Y-85120819D02*
X199119524Y-86120819D01*
X199119524Y-86120819D02*
X199310000Y-85406533D01*
X199310000Y-85406533D02*
X199500476Y-86120819D01*
X199500476Y-86120819D02*
X199738572Y-85120819D01*
X200643333Y-86120819D02*
X200071905Y-86120819D01*
X200357619Y-86120819D02*
X200357619Y-85120819D01*
X200357619Y-85120819D02*
X200262381Y-85263676D01*
X200262381Y-85263676D02*
X200167143Y-85358914D01*
X200167143Y-85358914D02*
X200071905Y-85406533D01*
D13*
X157258479Y-72878809D02*
X157772526Y-72878809D01*
X157772526Y-72878809D02*
X157833002Y-72848571D01*
X157833002Y-72848571D02*
X157863241Y-72818333D01*
X157863241Y-72818333D02*
X157893479Y-72757857D01*
X157893479Y-72757857D02*
X157893479Y-72636904D01*
X157893479Y-72636904D02*
X157863241Y-72576428D01*
X157863241Y-72576428D02*
X157833002Y-72546190D01*
X157833002Y-72546190D02*
X157772526Y-72515952D01*
X157772526Y-72515952D02*
X157258479Y-72515952D01*
X157893479Y-71880952D02*
X157893479Y-72243809D01*
X157893479Y-72062381D02*
X157258479Y-72062381D01*
X157258479Y-72062381D02*
X157349193Y-72122857D01*
X157349193Y-72122857D02*
X157409669Y-72183333D01*
X157409669Y-72183333D02*
X157439907Y-72243809D01*
D12*
X151154819Y-79333333D02*
X151869104Y-79333333D01*
X151869104Y-79333333D02*
X152011961Y-79380952D01*
X152011961Y-79380952D02*
X152107200Y-79476190D01*
X152107200Y-79476190D02*
X152154819Y-79619047D01*
X152154819Y-79619047D02*
X152154819Y-79714285D01*
X152154819Y-78333333D02*
X152154819Y-78904761D01*
X152154819Y-78619047D02*
X151154819Y-78619047D01*
X151154819Y-78619047D02*
X151297676Y-78714285D01*
X151297676Y-78714285D02*
X151392914Y-78809523D01*
X151392914Y-78809523D02*
X151440533Y-78904761D01*
X213738095Y-101804819D02*
X213738095Y-100804819D01*
X213738095Y-101281009D02*
X214309523Y-101281009D01*
X214309523Y-101804819D02*
X214309523Y-100804819D01*
X215214285Y-101138152D02*
X215214285Y-101804819D01*
X214976190Y-100757200D02*
X214738095Y-101471485D01*
X214738095Y-101471485D02*
X215357142Y-101471485D01*
X123238095Y-101804819D02*
X123238095Y-100804819D01*
X123238095Y-101281009D02*
X123809523Y-101281009D01*
X123809523Y-101804819D02*
X123809523Y-100804819D01*
X124190476Y-100804819D02*
X124809523Y-100804819D01*
X124809523Y-100804819D02*
X124476190Y-101185771D01*
X124476190Y-101185771D02*
X124619047Y-101185771D01*
X124619047Y-101185771D02*
X124714285Y-101233390D01*
X124714285Y-101233390D02*
X124761904Y-101281009D01*
X124761904Y-101281009D02*
X124809523Y-101376247D01*
X124809523Y-101376247D02*
X124809523Y-101614342D01*
X124809523Y-101614342D02*
X124761904Y-101709580D01*
X124761904Y-101709580D02*
X124714285Y-101757200D01*
X124714285Y-101757200D02*
X124619047Y-101804819D01*
X124619047Y-101804819D02*
X124333333Y-101804819D01*
X124333333Y-101804819D02*
X124238095Y-101757200D01*
X124238095Y-101757200D02*
X124190476Y-101709580D01*
X213238095Y-52804819D02*
X213238095Y-51804819D01*
X213238095Y-52281009D02*
X213809523Y-52281009D01*
X213809523Y-52804819D02*
X213809523Y-51804819D01*
X214238095Y-51900057D02*
X214285714Y-51852438D01*
X214285714Y-51852438D02*
X214380952Y-51804819D01*
X214380952Y-51804819D02*
X214619047Y-51804819D01*
X214619047Y-51804819D02*
X214714285Y-51852438D01*
X214714285Y-51852438D02*
X214761904Y-51900057D01*
X214761904Y-51900057D02*
X214809523Y-51995295D01*
X214809523Y-51995295D02*
X214809523Y-52090533D01*
X214809523Y-52090533D02*
X214761904Y-52233390D01*
X214761904Y-52233390D02*
X214190476Y-52804819D01*
X214190476Y-52804819D02*
X214809523Y-52804819D01*
X123238095Y-52804819D02*
X123238095Y-51804819D01*
X123238095Y-52281009D02*
X123809523Y-52281009D01*
X123809523Y-52804819D02*
X123809523Y-51804819D01*
X124809523Y-52804819D02*
X124238095Y-52804819D01*
X124523809Y-52804819D02*
X124523809Y-51804819D01*
X124523809Y-51804819D02*
X124428571Y-51947676D01*
X124428571Y-51947676D02*
X124333333Y-52042914D01*
X124333333Y-52042914D02*
X124238095Y-52090533D01*
X200619047Y-69731009D02*
X200761904Y-69778628D01*
X200761904Y-69778628D02*
X200809523Y-69826247D01*
X200809523Y-69826247D02*
X200857142Y-69921485D01*
X200857142Y-69921485D02*
X200857142Y-70064342D01*
X200857142Y-70064342D02*
X200809523Y-70159580D01*
X200809523Y-70159580D02*
X200761904Y-70207200D01*
X200761904Y-70207200D02*
X200666666Y-70254819D01*
X200666666Y-70254819D02*
X200285714Y-70254819D01*
X200285714Y-70254819D02*
X200285714Y-69254819D01*
X200285714Y-69254819D02*
X200619047Y-69254819D01*
X200619047Y-69254819D02*
X200714285Y-69302438D01*
X200714285Y-69302438D02*
X200761904Y-69350057D01*
X200761904Y-69350057D02*
X200809523Y-69445295D01*
X200809523Y-69445295D02*
X200809523Y-69540533D01*
X200809523Y-69540533D02*
X200761904Y-69635771D01*
X200761904Y-69635771D02*
X200714285Y-69683390D01*
X200714285Y-69683390D02*
X200619047Y-69731009D01*
X200619047Y-69731009D02*
X200285714Y-69731009D01*
X201190476Y-69254819D02*
X201857142Y-69254819D01*
X201857142Y-69254819D02*
X201190476Y-70254819D01*
X201190476Y-70254819D02*
X201857142Y-70254819D01*
X202761904Y-70254819D02*
X202190476Y-70254819D01*
X202476190Y-70254819D02*
X202476190Y-69254819D01*
X202476190Y-69254819D02*
X202380952Y-69397676D01*
X202380952Y-69397676D02*
X202285714Y-69492914D01*
X202285714Y-69492914D02*
X202190476Y-69540533D01*
X197309048Y-74533866D02*
X198070953Y-74533866D01*
X197690000Y-74914819D02*
X197690000Y-74152914D01*
X179086667Y-86033200D02*
X179229524Y-86080819D01*
X179229524Y-86080819D02*
X179467619Y-86080819D01*
X179467619Y-86080819D02*
X179562857Y-86033200D01*
X179562857Y-86033200D02*
X179610476Y-85985580D01*
X179610476Y-85985580D02*
X179658095Y-85890342D01*
X179658095Y-85890342D02*
X179658095Y-85795104D01*
X179658095Y-85795104D02*
X179610476Y-85699866D01*
X179610476Y-85699866D02*
X179562857Y-85652247D01*
X179562857Y-85652247D02*
X179467619Y-85604628D01*
X179467619Y-85604628D02*
X179277143Y-85557009D01*
X179277143Y-85557009D02*
X179181905Y-85509390D01*
X179181905Y-85509390D02*
X179134286Y-85461771D01*
X179134286Y-85461771D02*
X179086667Y-85366533D01*
X179086667Y-85366533D02*
X179086667Y-85271295D01*
X179086667Y-85271295D02*
X179134286Y-85176057D01*
X179134286Y-85176057D02*
X179181905Y-85128438D01*
X179181905Y-85128438D02*
X179277143Y-85080819D01*
X179277143Y-85080819D02*
X179515238Y-85080819D01*
X179515238Y-85080819D02*
X179658095Y-85128438D01*
X179991429Y-85080819D02*
X180229524Y-86080819D01*
X180229524Y-86080819D02*
X180420000Y-85366533D01*
X180420000Y-85366533D02*
X180610476Y-86080819D01*
X180610476Y-86080819D02*
X180848572Y-85080819D01*
X181181905Y-85176057D02*
X181229524Y-85128438D01*
X181229524Y-85128438D02*
X181324762Y-85080819D01*
X181324762Y-85080819D02*
X181562857Y-85080819D01*
X181562857Y-85080819D02*
X181658095Y-85128438D01*
X181658095Y-85128438D02*
X181705714Y-85176057D01*
X181705714Y-85176057D02*
X181753333Y-85271295D01*
X181753333Y-85271295D02*
X181753333Y-85366533D01*
X181753333Y-85366533D02*
X181705714Y-85509390D01*
X181705714Y-85509390D02*
X181134286Y-86080819D01*
X181134286Y-86080819D02*
X181753333Y-86080819D01*
%TO.C,SW4*%
D14*
X148565000Y-100485000D02*
X134595000Y-100485000D01*
X148565000Y-86515000D02*
X148565000Y-100485000D01*
X134595000Y-100485000D02*
X134595000Y-86515000D01*
X134595000Y-86515000D02*
X148565000Y-86515000D01*
%TO.C,SW3*%
X167995000Y-100485000D02*
X154025000Y-100485000D01*
X167995000Y-86515000D02*
X167995000Y-100485000D01*
X154025000Y-100485000D02*
X154025000Y-86515000D01*
X154025000Y-86515000D02*
X167995000Y-86515000D01*
%TO.C,SW1*%
X206295000Y-100525000D02*
X192325000Y-100525000D01*
X206295000Y-86555000D02*
X206295000Y-100525000D01*
X192325000Y-100525000D02*
X192325000Y-86555000D01*
X192325000Y-86555000D02*
X206295000Y-86555000D01*
%TO.C,U1*%
D15*
X159132000Y-61870000D02*
G75*
G02*
X158628000Y-61870000I-252000J0D01*
G01*
X158628000Y-61870000D02*
G75*
G02*
X159132000Y-61870000I252000J0D01*
G01*
X160275000Y-62750000D02*
G75*
G02*
X159771000Y-62750000I-252000J0D01*
G01*
X159771000Y-62750000D02*
G75*
G02*
X160275000Y-62750000I252000J0D01*
G01*
D16*
X171884000Y-60069000D02*
G75*
G02*
X172384000Y-60569000I0J-500000D01*
G01*
X163388728Y-60568728D02*
G75*
G02*
X163888728Y-60069028I499972J-272D01*
G01*
X174865000Y-61579000D02*
G75*
G02*
X176770000Y-63484000I0J-1905000D01*
G01*
X158990000Y-63484000D02*
G75*
G02*
X160895000Y-61579000I1905000J0D01*
G01*
X176770000Y-80629000D02*
G75*
G02*
X174865000Y-82534000I-1905001J1D01*
G01*
X160895000Y-82534000D02*
G75*
G02*
X158990000Y-80629000I1J1905001D01*
G01*
X163888728Y-60069000D02*
X171884000Y-60069000D01*
X172384000Y-60569000D02*
X172384000Y-61579000D01*
X174865000Y-61579000D02*
X160895000Y-61579000D01*
D10*
X174865000Y-61579000D02*
X160895000Y-61579000D01*
D16*
X163385000Y-61579000D02*
X163388728Y-60568728D01*
X176770000Y-80629000D02*
X176770000Y-63484000D01*
X158990000Y-80629000D02*
X158990000Y-63484000D01*
X160895000Y-82534000D02*
X174865000Y-82534000D01*
%TO.C,J1*%
D14*
X150430000Y-77670000D02*
X132590000Y-77670000D01*
X150430000Y-77670000D02*
X150430000Y-80330000D01*
X132590000Y-77670000D02*
X132590000Y-80330000D01*
X153030000Y-79000000D02*
X153030000Y-80330000D01*
X153030000Y-80330000D02*
X151700000Y-80330000D01*
X150430000Y-80330000D02*
X132590000Y-80330000D01*
%TO.C,BZ1*%
X207600000Y-77000000D02*
G75*
G02*
X195400000Y-77000000I-6100000J0D01*
G01*
X195400000Y-77000000D02*
G75*
G02*
X207600000Y-77000000I6100000J0D01*
G01*
%TO.C,SW2*%
X187405000Y-100485000D02*
X173435000Y-100485000D01*
X187405000Y-86515000D02*
X187405000Y-100485000D01*
X173435000Y-100485000D02*
X173435000Y-86515000D01*
X173435000Y-86515000D02*
X187405000Y-86515000D01*
%TD*%
M02*
