%TF.GenerationSoftware,KiCad,Pcbnew,10.0.3*%
%TF.CreationDate,2026-08-29T17:03:54-07:00*%
%TF.ProjectId,blare,626c6172-652e-46b6-9963-61645f706362,rev?*%
%TF.SameCoordinates,Original*%
%TF.FileFunction,Copper,L2,Bot*%
%TF.FilePolarity,Positive*%
%FSLAX46Y46*%
G04 Gerber Fmt 4.6, Leading zero omitted, Abs format (unit mm)*
G04 Created by KiCad (PCBNEW 10.0.3) date 2026-08-29 17:03:54*
%MOMM*%
%LPD*%
G01*
G04 APERTURE LIST*
%TA.AperFunction,ComponentPad*%
%ADD10C,2.200000*%
%TD*%
%TA.AperFunction,ComponentPad*%
%ADD11C,1.524000*%
%TD*%
%TA.AperFunction,ComponentPad*%
%ADD12R,1.700000X1.700000*%
%TD*%
%TA.AperFunction,ComponentPad*%
%ADD13C,1.700000*%
%TD*%
%TA.AperFunction,ComponentPad*%
%ADD14R,2.000000X2.000000*%
%TD*%
%TA.AperFunction,ComponentPad*%
%ADD15C,2.000000*%
%TD*%
%TA.AperFunction,ViaPad*%
%ADD16C,0.600000*%
%TD*%
%TA.AperFunction,Conductor*%
%ADD17C,0.200000*%
%TD*%
G04 APERTURE END LIST*
D10*
%TO.P,SW4,2,2_2*%
%TO.N,Net-(U1-D3)*%
X137770000Y-90960000D03*
%TO.P,SW4,1,1_1*%
%TO.N,GND*%
X144120000Y-88420000D03*
%TD*%
%TO.P,SW3,2,2_2*%
%TO.N,Net-(U1-D2)*%
X157200000Y-90960000D03*
%TO.P,SW3,1,1_1*%
%TO.N,GND*%
X163550000Y-88420000D03*
%TD*%
%TO.P,SW1,2,2_2*%
%TO.N,Net-(U1-D0)*%
X195500000Y-91000000D03*
%TO.P,SW1,1,1_1*%
%TO.N,GND*%
X201850000Y-88460000D03*
%TD*%
D11*
%TO.P,U1,14,VBUS_14*%
%TO.N,unconnected-(U1-VBUS-Pad14)*%
X175500000Y-64500000D03*
%TO.P,U1,13,GND_13*%
%TO.N,GND*%
X175500000Y-67040000D03*
%TO.P,U1,12,3V3_OUT_12*%
%TO.N,+3.3V*%
X175500000Y-69580000D03*
%TO.P,U1,11,D10_11*%
%TO.N,/SDA*%
X175500000Y-72120000D03*
%TO.P,U1,10,D9/BOOT_10*%
%TO.N,/SCL*%
X175500000Y-74660000D03*
%TO.P,U1,9,D8_9*%
%TO.N,/RST*%
X175500000Y-77200000D03*
%TO.P,U1,8,D7_8*%
%TO.N,Net-(BZ1-+)*%
X175500000Y-79740000D03*
%TO.P,U1,7,D6_7*%
%TO.N,/BL*%
X160260000Y-79740000D03*
%TO.P,U1,6,D5_6*%
%TO.N,/CS*%
X160260000Y-77200000D03*
%TO.P,U1,5,D4_5*%
%TO.N,/DC*%
X160260000Y-74660000D03*
%TO.P,U1,4,D3_4*%
%TO.N,Net-(U1-D3)*%
X160260000Y-72120000D03*
%TO.P,U1,3,D2_3*%
%TO.N,Net-(U1-D2)*%
X160260000Y-69580000D03*
%TO.P,U1,2,D1_2*%
%TO.N,Net-(U1-D1)*%
X160260000Y-67040000D03*
%TO.P,U1,1,D0_1*%
%TO.N,Net-(U1-D0)*%
X160260000Y-64500000D03*
%TD*%
D12*
%TO.P,J1,1,Pin_1_1*%
%TO.N,GND*%
X151700000Y-79000000D03*
D13*
%TO.P,J1,2,Pin_2_2*%
%TO.N,+3.3V*%
X149160000Y-79000000D03*
%TO.P,J1,3,Pin_3_3*%
%TO.N,/SCL*%
X146620000Y-79000000D03*
%TO.P,J1,4,Pin_4_4*%
%TO.N,/SDA*%
X144080000Y-79000000D03*
%TO.P,J1,5,Pin_5_5*%
%TO.N,/RST*%
X141540000Y-79000000D03*
%TO.P,J1,6,Pin_6_6*%
%TO.N,/DC*%
X139000000Y-79000000D03*
%TO.P,J1,7,Pin_7_7*%
%TO.N,/CS*%
X136460000Y-79000000D03*
%TO.P,J1,8,Pin_8_8*%
%TO.N,/BL*%
X133920000Y-79000000D03*
%TD*%
D14*
%TO.P,BZ1,1,+_1*%
%TO.N,Net-(BZ1-+)*%
X197700000Y-77000000D03*
D15*
%TO.P,BZ1,2,-_2*%
%TO.N,GND*%
X205300000Y-77000000D03*
%TD*%
D10*
%TO.P,SW2,2,2_2*%
%TO.N,Net-(U1-D1)*%
X176610000Y-90960000D03*
%TO.P,SW2,1,1_1*%
%TO.N,GND*%
X182960000Y-88420000D03*
%TD*%
D16*
%TO.N,+3.3V*%
X172000000Y-80600000D03*
X155500000Y-80500000D03*
%TO.N,/CS*%
X162000000Y-74500000D03*
%TO.N,Net-(U1-D3)*%
X137500000Y-76500000D03*
%TD*%
%TO.N,+3.3V*%
D17*
X172000000Y-81000000D02*
X172000000Y-80600000D01*
X157000000Y-82000000D02*
X171000000Y-82000000D01*
X171000000Y-82000000D02*
X172000000Y-81000000D01*
X155500000Y-80500000D02*
X157000000Y-82000000D01*
%TO.N,/CS*%
X142000000Y-71000000D02*
X163000000Y-71000000D01*
X163000000Y-71000000D02*
X163000000Y-71500000D01*
X163000000Y-71500000D02*
X162000000Y-72500000D01*
X162000000Y-72500000D02*
X162000000Y-74500000D01*
X136460000Y-76540000D02*
X142000000Y-71000000D01*
X136460000Y-79000000D02*
X136460000Y-76540000D01*
%TO.N,/DC*%
X143340000Y-74660000D02*
X160260000Y-74660000D01*
X139000000Y-79000000D02*
X143340000Y-74660000D01*
%TO.N,/RST*%
X144402000Y-76138000D02*
X141540000Y-79000000D01*
X174438000Y-76138000D02*
X144402000Y-76138000D01*
X175500000Y-77200000D02*
X174438000Y-76138000D01*
%TO.N,Net-(U1-D3)*%
X138100000Y-90630000D02*
X137770000Y-90960000D01*
X137610000Y-82261471D02*
X138100000Y-82751471D01*
X138100000Y-82751471D02*
X138100000Y-90630000D01*
X137610000Y-76610000D02*
X137610000Y-82261471D01*
X137500000Y-76500000D02*
X137610000Y-76610000D01*
%TO.N,/BL*%
X160500000Y-79980000D02*
X160500000Y-80000000D01*
X160260000Y-79740000D02*
X160500000Y-79980000D01*
%TO.N,GND*%
X182960000Y-88420000D02*
X182960000Y-74500000D01*
X182960000Y-74500000D02*
X175500000Y-67040000D01*
X150000000Y-88460000D02*
X201850000Y-88460000D01*
X151500000Y-79500000D02*
X151500000Y-86960000D01*
X151700000Y-79300000D02*
X151500000Y-79500000D01*
X151700000Y-79000000D02*
X151700000Y-79300000D01*
X151500000Y-86960000D02*
X150000000Y-88460000D01*
X146960000Y-88460000D02*
X150000000Y-88460000D01*
%TD*%
M02*
