%TF.GenerationSoftware,KiCad,Pcbnew,10.0.3*%
%TF.CreationDate,2026-08-29T17:03:54-07:00*%
%TF.ProjectId,blare,626c6172-652e-46b6-9963-61645f706362,rev?*%
%TF.SameCoordinates,Original*%
%TF.FileFunction,Copper,L1,Top*%
%TF.FilePolarity,Positive*%
%FSLAX46Y46*%
G04 Gerber Fmt 4.6, Leading zero omitted, Abs format (unit mm)*
G04 Created by KiCad (PCBNEW 10.0.3) date 2026-08-29 17:03:54*
%MOMM*%
%LPD*%
G01*
G04 APERTURE LIST*
G04 Aperture macros list*
%AMRoundRect*
0 Rectangle with rounded corners*
0 $1 Rounding radius*
0 $2 $3 $4 $5 $6 $7 $8 $9 X,Y pos of 4 corners*
0 Add a 4 corners polygon primitive as box body*
4,1,4,$2,$3,$4,$5,$6,$7,$8,$9,$2,$3,0*
0 Add four circle primitives for the rounded corners*
1,1,$1+$1,$2,$3*
1,1,$1+$1,$4,$5*
1,1,$1+$1,$6,$7*
1,1,$1+$1,$8,$9*
0 Add four rect primitives between the rounded corners*
20,1,$1+$1,$2,$3,$4,$5,0*
20,1,$1+$1,$4,$5,$6,$7,0*
20,1,$1+$1,$6,$7,$8,$9,0*
20,1,$1+$1,$8,$9,$2,$3,0*%
G04 Aperture macros list end*
%TA.AperFunction,ComponentPad*%
%ADD10C,2.200000*%
%TD*%
%TA.AperFunction,SMDPad,CuDef*%
%ADD11RoundRect,0.152400X-1.063600X-0.609600X1.063600X-0.609600X1.063600X0.609600X-1.063600X0.609600X0*%
%TD*%
%TA.AperFunction,ComponentPad*%
%ADD12C,1.524000*%
%TD*%
%TA.AperFunction,SMDPad,CuDef*%
%ADD13RoundRect,0.152400X1.063600X0.609600X-1.063600X0.609600X-1.063600X-0.609600X1.063600X-0.609600X0*%
%TD*%
%TA.AperFunction,ComponentPad*%
%ADD14R,1.700000X1.700000*%
%TD*%
%TA.AperFunction,ComponentPad*%
%ADD15C,1.700000*%
%TD*%
%TA.AperFunction,ComponentPad*%
%ADD16R,2.000000X2.000000*%
%TD*%
%TA.AperFunction,ComponentPad*%
%ADD17C,2.000000*%
%TD*%
%TA.AperFunction,ViaPad*%
%ADD18C,0.600000*%
%TD*%
%TA.AperFunction,Conductor*%
%ADD19C,0.200000*%
%TD*%
G04 APERTURE END LIST*
D10*
%TO.P,SW4,2,2_2*%
%TO.N,Net-(U1-D3)*%
X137770000Y-90960000D03*
%TO.P,SW4,1,1_1*%
%TO.N,GND*%
X144120000Y-88420000D03*
%TD*%
%TO.P,SW3,2,2_2*%
%TO.N,Net-(U1-D2)*%
X157200000Y-90960000D03*
%TO.P,SW3,1,1_1*%
%TO.N,GND*%
X163550000Y-88420000D03*
%TD*%
%TO.P,SW1,2,2_2*%
%TO.N,Net-(U1-D0)*%
X195500000Y-91000000D03*
%TO.P,SW1,1,1_1*%
%TO.N,GND*%
X201850000Y-88460000D03*
%TD*%
D11*
%TO.P,U1,14,VBUS_14*%
%TO.N,unconnected-(U1-VBUS-Pad14)*%
X176335000Y-64500000D03*
D12*
X175500000Y-64500000D03*
D11*
%TO.P,U1,13,GND_13*%
%TO.N,GND*%
X176335000Y-67040000D03*
D12*
X175500000Y-67040000D03*
D11*
%TO.P,U1,12,3V3_OUT_12*%
%TO.N,+3.3V*%
X176335000Y-69580000D03*
D12*
X175500000Y-69580000D03*
D11*
%TO.P,U1,11,D10_11*%
%TO.N,/SDA*%
X176335000Y-72120000D03*
D12*
X175500000Y-72120000D03*
D11*
%TO.P,U1,10,D9/BOOT_10*%
%TO.N,/SCL*%
X176335000Y-74660000D03*
D12*
X175500000Y-74660000D03*
D11*
%TO.P,U1,9,D8_9*%
%TO.N,/RST*%
X176335000Y-77200000D03*
D12*
X175500000Y-77200000D03*
D11*
%TO.P,U1,8,D7_8*%
%TO.N,Net-(BZ1-+)*%
X176335000Y-79740000D03*
D12*
X175500000Y-79740000D03*
%TO.P,U1,7,D6_7*%
%TO.N,/BL*%
X160260000Y-79740000D03*
D13*
X159425000Y-79740000D03*
D12*
%TO.P,U1,6,D5_6*%
%TO.N,/CS*%
X160260000Y-77200000D03*
D13*
X159425000Y-77200000D03*
D12*
%TO.P,U1,5,D4_5*%
%TO.N,/DC*%
X160260000Y-74660000D03*
D13*
X159425000Y-74660000D03*
D12*
%TO.P,U1,4,D3_4*%
%TO.N,Net-(U1-D3)*%
X160260000Y-72120000D03*
D13*
X159425000Y-72120000D03*
D12*
%TO.P,U1,3,D2_3*%
%TO.N,Net-(U1-D2)*%
X160260000Y-69580000D03*
D13*
X159425000Y-69580000D03*
D12*
%TO.P,U1,2,D1_2*%
%TO.N,Net-(U1-D1)*%
X160260000Y-67040000D03*
D13*
X159425000Y-67040000D03*
D12*
%TO.P,U1,1,D0_1*%
%TO.N,Net-(U1-D0)*%
X160260000Y-64500000D03*
D13*
X159425000Y-64500000D03*
%TD*%
D14*
%TO.P,J1,1,Pin_1_1*%
%TO.N,GND*%
X151700000Y-79000000D03*
D15*
%TO.P,J1,2,Pin_2_2*%
%TO.N,+3.3V*%
X149160000Y-79000000D03*
%TO.P,J1,3,Pin_3_3*%
%TO.N,/SCL*%
X146620000Y-79000000D03*
%TO.P,J1,4,Pin_4_4*%
%TO.N,/SDA*%
X144080000Y-79000000D03*
%TO.P,J1,5,Pin_5_5*%
%TO.N,/RST*%
X141540000Y-79000000D03*
%TO.P,J1,6,Pin_6_6*%
%TO.N,/DC*%
X139000000Y-79000000D03*
%TO.P,J1,7,Pin_7_7*%
%TO.N,/CS*%
X136460000Y-79000000D03*
%TO.P,J1,8,Pin_8_8*%
%TO.N,/BL*%
X133920000Y-79000000D03*
%TD*%
D16*
%TO.P,BZ1,1,+_1*%
%TO.N,Net-(BZ1-+)*%
X197700000Y-77000000D03*
D17*
%TO.P,BZ1,2,-_2*%
%TO.N,GND*%
X205300000Y-77000000D03*
%TD*%
D10*
%TO.P,SW2,2,2_2*%
%TO.N,Net-(U1-D1)*%
X176610000Y-90960000D03*
%TO.P,SW2,1,1_1*%
%TO.N,GND*%
X182960000Y-88420000D03*
%TD*%
D18*
%TO.N,+3.3V*%
X172000000Y-80600000D03*
X155500000Y-80500000D03*
%TO.N,/CS*%
X162000000Y-74500000D03*
%TO.N,Net-(U1-D3)*%
X137500000Y-76500000D03*
%TD*%
%TO.N,+3.3V*%
D19*
X177851000Y-75461214D02*
X177851000Y-71318786D01*
X177851000Y-71318786D02*
X176112214Y-69580000D01*
X177590214Y-75722000D02*
X177851000Y-75461214D01*
X175060105Y-75722000D02*
X177590214Y-75722000D01*
X176112214Y-69580000D02*
X175500000Y-69580000D01*
X172000000Y-78782105D02*
X175060105Y-75722000D01*
X172000000Y-80600000D02*
X172000000Y-78782105D01*
X150660000Y-80500000D02*
X155500000Y-80500000D01*
X149160000Y-79000000D02*
X150660000Y-80500000D01*
%TO.N,/SDA*%
X166418000Y-63038000D02*
X175500000Y-72120000D01*
X136900000Y-76748529D02*
X136900000Y-76251471D01*
X144900000Y-77100000D02*
X137251471Y-77100000D01*
X137251471Y-77100000D02*
X136900000Y-76748529D01*
X136900000Y-76251471D02*
X150113471Y-63038000D01*
X150113471Y-63038000D02*
X166418000Y-63038000D01*
X148500000Y-73500000D02*
X144900000Y-77100000D01*
%TO.N,/SCL*%
X164278000Y-63438000D02*
X175500000Y-74660000D01*
X158169786Y-63438000D02*
X164278000Y-63438000D01*
X157909000Y-63698786D02*
X158169786Y-63438000D01*
X157909000Y-70381214D02*
X157909000Y-63698786D01*
X158169786Y-70642000D02*
X157909000Y-70381214D01*
X160699895Y-70642000D02*
X158169786Y-70642000D01*
X162600000Y-72542105D02*
X160699895Y-70642000D01*
X162600000Y-73500000D02*
X162600000Y-72542105D01*
X152120000Y-73500000D02*
X162600000Y-73500000D01*
X146620000Y-79000000D02*
X152120000Y-73500000D01*
%TO.N,/SDA*%
X148500000Y-74500000D02*
X148500000Y-73500000D01*
X144000000Y-79000000D02*
X148500000Y-74500000D01*
X144080000Y-79000000D02*
X144000000Y-79000000D01*
%TO.N,/CS*%
X162000000Y-75460000D02*
X160260000Y-77200000D01*
X162000000Y-74500000D02*
X162000000Y-75460000D01*
%TO.N,/BL*%
X137420000Y-82500000D02*
X133920000Y-79000000D01*
X157500000Y-82500000D02*
X137420000Y-82500000D01*
X160260000Y-79740000D02*
X157500000Y-82500000D01*
%TO.N,Net-(U1-D3)*%
X137610000Y-76610000D02*
X137500000Y-76500000D01*
X137770000Y-90960000D02*
X137770000Y-91270000D01*
X137770000Y-91270000D02*
X137500000Y-91000000D01*
%TO.N,GND*%
X151700000Y-79000000D02*
X151500000Y-79000000D01*
%TO.N,Net-(U1-D3)*%
X141880000Y-72120000D02*
X137500000Y-76500000D01*
X159425000Y-72120000D02*
X141880000Y-72120000D01*
%TO.N,Net-(U1-D0)*%
X169000000Y-73240000D02*
X160260000Y-64500000D01*
X169000000Y-81000000D02*
X169000000Y-73240000D01*
X169500000Y-81500000D02*
X169000000Y-81000000D01*
X186000000Y-81500000D02*
X169500000Y-81500000D01*
X195500000Y-91000000D02*
X186000000Y-81500000D01*
%TO.N,Net-(U1-D1)*%
X165500000Y-72280000D02*
X160260000Y-67040000D01*
X165500000Y-82000000D02*
X165500000Y-72280000D01*
X171000000Y-87500000D02*
X165500000Y-82000000D01*
X171000000Y-91000000D02*
X171000000Y-87500000D01*
X171040000Y-90960000D02*
X171000000Y-91000000D01*
X176610000Y-90960000D02*
X171040000Y-90960000D01*
%TO.N,Net-(U1-D2)*%
X163000000Y-81500000D02*
X163000000Y-72320000D01*
X157200000Y-87300000D02*
X163000000Y-81500000D01*
X163000000Y-72320000D02*
X160260000Y-69580000D01*
X157200000Y-90960000D02*
X157200000Y-87300000D01*
%TO.N,Net-(BZ1-+)*%
X194960000Y-79740000D02*
X197700000Y-77000000D01*
X175500000Y-79740000D02*
X194960000Y-79740000D01*
%TO.N,GND*%
X201500000Y-80800000D02*
X205300000Y-77000000D01*
X201850000Y-88350000D02*
X201500000Y-88000000D01*
X201850000Y-88460000D02*
X201850000Y-88350000D01*
X201500000Y-88000000D02*
X201500000Y-80800000D01*
X146920000Y-88420000D02*
X146960000Y-88460000D01*
X144120000Y-88420000D02*
X146920000Y-88420000D01*
X193800000Y-88350000D02*
X193730000Y-88420000D01*
X148080000Y-88420000D02*
X148000000Y-88500000D01*
X148460000Y-88420000D02*
X148080000Y-88420000D01*
%TD*%
M02*
